<svg width="20" height="21" viewBox="0 0 20 21" fill="none" xmlns="http://www.w3.org/2000/svg">
<g clip-path="url(#clip0_73_546)">
<path d="M5.14249 13.4748C5.14249 14.3102 4.46529 14.9874 3.62996 14.9874C2.79463 14.9874 2.11743 14.3102 2.11743 13.4748V10.7523C2.11743 9.91694 2.79463 9.23975 3.62996 9.23975C4.46529 9.23975 5.14249 9.91694 5.14249 10.7523V13.4748Z" stroke="#0047CC" stroke-width="1.51253" stroke-miterlimit="10" stroke-linecap="round" stroke-linejoin="round"/>
<path d="M17.2427 13.4748C17.2427 14.3102 16.5655 14.9874 15.7302 14.9874C14.8948 14.9874 14.2177 14.3102 14.2177 13.4748V10.7523C14.2177 9.91694 14.8948 9.23975 15.7302 9.23975C16.5655 9.23975 17.2427 9.91694 17.2427 10.7523V13.4748Z" stroke="#0047CC" stroke-width="1.51253" stroke-miterlimit="10" stroke-linecap="round" stroke-linejoin="round"/>
<path d="M2.11755 10.7523V9.23982C2.11755 5.06309 5.50346 1.67719 9.68019 1.67719C13.8569 1.67719 17.2428 5.06309 17.2428 9.23982V10.7523" stroke="#0047CC" stroke-width="1.51253" stroke-miterlimit="10" stroke-linecap="round" stroke-linejoin="round"/>
<path d="M17.2427 13.4748V14.9873C17.2427 16.658 15.8883 18.0124 14.2176 18.0124H11.1926" stroke="#0047CC" stroke-width="1.51253" stroke-miterlimit="10" stroke-linecap="round" stroke-linejoin="round"/>
<path d="M9.68007 19.5249C10.5154 19.5249 11.1926 18.8478 11.1926 18.0124C11.1926 17.1771 10.5154 16.4999 9.68007 16.4999C8.84472 16.4999 8.16754 17.1771 8.16754 18.0124C8.16754 18.8478 8.84472 19.5249 9.68007 19.5249Z" stroke="#0047CC" stroke-width="1.51253" stroke-miterlimit="10" stroke-linecap="round" stroke-linejoin="round"/>
</g>
<defs>
<clipPath id="clip0_73_546">
<rect width="19.3604" height="19.3604" fill="white" transform="translate(0 0.920898)"/>
</clipPath>
</defs>
</svg>
