<svg width="28" height="28" viewBox="0 0 28 28" fill="none" xmlns="http://www.w3.org/2000/svg">
<g clip-path="url(#clip0_73_869)">
<path d="M7.33427 18.3659C7.33427 19.5352 6.38629 20.4832 5.21694 20.4832C4.04759 20.4832 3.09961 19.5352 3.09961 18.3659V14.5547C3.09961 13.3854 4.04759 12.4374 5.21694 12.4374C6.38629 12.4374 7.33427 13.3854 7.33427 14.5547V18.3659Z" stroke="white" stroke-width="1.51253" stroke-miterlimit="10" stroke-linecap="round" stroke-linejoin="round"/>
<path d="M24.2729 18.3659C24.2729 19.5352 23.3249 20.4832 22.1555 20.4832C20.9862 20.4832 20.0382 19.5352 20.0382 18.3659V14.5547C20.0382 13.3854 20.9862 12.4374 22.1555 12.4374C23.3249 12.4374 24.2729 13.3854 24.2729 14.5547V18.3659Z" stroke="white" stroke-width="1.51253" stroke-miterlimit="10" stroke-linecap="round" stroke-linejoin="round"/>
<path d="M3.09973 14.5548V12.4375C3.09973 6.59063 7.83953 1.85083 13.6864 1.85083C19.5332 1.85083 24.273 6.59063 24.273 12.4375V14.5548" stroke="white" stroke-width="1.51253" stroke-miterlimit="10" stroke-linecap="round" stroke-linejoin="round"/>
<path d="M24.2728 18.3658V20.4832C24.2728 22.8219 22.3769 24.7178 20.0381 24.7178H15.8035" stroke="white" stroke-width="1.51253" stroke-miterlimit="10" stroke-linecap="round" stroke-linejoin="round"/>
<path d="M13.6862 26.8352C14.8555 26.8352 15.8035 25.8872 15.8035 24.7179C15.8035 23.5485 14.8555 22.6005 13.6862 22.6005C12.5168 22.6005 11.5688 23.5485 11.5688 24.7179C11.5688 25.8872 12.5168 26.8352 13.6862 26.8352Z" stroke="white" stroke-width="1.51253" stroke-miterlimit="10" stroke-linecap="round" stroke-linejoin="round"/>
</g>
<defs>
<clipPath id="clip0_73_869">
<rect width="27.1018" height="27.1018" fill="white" transform="translate(0.135498 0.792175)"/>
</clipPath>
</defs>
</svg>
